<?xml version="1.0" encoding="utf-8"?>
<!-- Generator: Adobe Illustrator 16.0.0, SVG Export Plug-In . SVG Version: 6.00 Build 0)  -->
<!DOCTYPE svg PUBLIC "-//W3C//DTD SVG 1.1//EN" "http://www.w3.org/Graphics/SVG/1.1/DTD/svg11.dtd">
<svg version="1.1" id="Capa_1" xmlns="http://www.w3.org/2000/svg" xmlns:xlink="http://www.w3.org/1999/xlink" x="0px" y="0px"
	 width="50px" height="50px" viewBox="0 0 50 50" enable-background="new 0 0 50 50" xml:space="preserve">
<g>
	<g>
		<path fill-rule="evenodd" clip-rule="evenodd" fill="#4F8AC0" d="M18.711,18.077c-1.041-1.717-2.025-3.255-2.914-4.848
			c-0.411-0.737-0.761-1.557-0.917-2.382c-0.283-1.495,0.261-2.12,1.703-1.7c2.078,0.606,4.13,1.391,6.069,2.351
			c1.34,0.662,2.445,1.785,3.709,2.619c0.305,0.2,0.932,0.237,1.238,0.056c2.95-1.736,5.85-3.559,8.793-5.307
			c1.238-0.735,2.556-1.336,3.818-2.031c0.714-0.394,1.347-0.972,2.096-1.253c0.674-0.254,1.458-0.216,2.193-0.307
			c0.001,0.585,0.095,1.189-0.022,1.749c-0.117,0.561-0.369,1.126-0.69,1.604c-2.152,3.192-3.988,6.616-6.751,9.37
			c-0.193,0.192-0.348,0.423-0.54,0.615c-0.737,0.74-0.604,1.213,0.179,1.979c3.729,3.656,7.145,7.566,9.349,12.393
			c1.215,2.66,2.555,5.26,3.794,7.908c0.195,0.416,0.158,0.939,0.229,1.414c-0.507,0.004-1.123,0.197-1.505-0.02
			c-2.674-1.517-5.407-2.966-7.916-4.729c-4.175-2.935-8.195-6.09-12.282-9.15c-0.281-0.211-0.567-0.415-0.857-0.612
			c-1.064-0.724-1.353-0.581-1.832,0.627c-0.975,2.458-1.896,4.948-3.067,7.312c-1.107,2.23-2.443,4.356-3.809,6.443
			c-0.628,0.96-1.527,1.759-2.382,2.545c-0.364,0.334-0.931,0.448-1.405,0.663c-0.205-0.517-0.624-1.05-0.579-1.543
			c0.223-2.476,0.36-4.989,0.918-7.398c0.825-3.556,1.979-7.034,2.997-10.546c0.328-1.131,0.221-1.275-0.986-1.311
			c-5.445-0.15-10.758-1.116-15.974-2.641C0.862,21.799,0.454,21.312,0,20.982c0.35-0.43,0.617-1.091,1.063-1.25
			c2.041-0.73,4.094-1.519,6.212-1.918C11.021,17.108,14.798,17.555,18.711,18.077z"/>
		<path fill-rule="evenodd" clip-rule="evenodd" fill="#C15426" d="M9.823,33.48c1.746,0.127,2.457,0.622,3.017,2.253
			c0.576,1.678,0.817,3.381,0.435,5.162c-0.357,1.665-1.986,3.409-3.543,3.628c-1.899,0.267-4.514-0.847-5.027-2.472
			c-1.135-3.598-0.011-7.627,4.084-8.478C9.125,33.505,9.478,33.51,9.823,33.48z"/>
		<path fill-rule="evenodd" clip-rule="evenodd" fill="#E0B224" d="M11.268,30.469c-1.674,0.005-2.727-0.895-2.747-2.348
			c-0.024-1.786,1.242-2.864,3.369-2.865c1.447-0.002,2.532,1.209,2.548,2.846C14.452,29.51,13.174,30.465,11.268,30.469z"/>
	</g>
</g>
</svg>
